<mxfile host="65bd71144e">
    <diagram id="lIinfMjsh9ag17VaW_X7" name="Page-1">
        <mxGraphModel dx="1143" dy="440" grid="1" gridSize="10" guides="1" tooltips="1" connect="1" arrows="1" fold="1" page="1" pageScale="1" pageWidth="1169" pageHeight="827" background="#ffffff" math="0" shadow="0">
            <root>
                <mxCell id="0"/>
                <mxCell id="1" parent="0"/>
                <mxCell id="70" value="7" style="rounded=1;whiteSpace=wrap;html=1;fillColor=none;strokeColor=#000000;fontColor=#000000;" vertex="1" parent="1">
                    <mxGeometry x="250" y="364" width="120" height="20" as="geometry"/>
                </mxCell>
                <mxCell id="71" value="6" style="rounded=1;whiteSpace=wrap;html=1;fillColor=none;strokeColor=#000000;fontColor=#000000;" vertex="1" parent="1">
                    <mxGeometry x="250" y="384" width="120" height="20" as="geometry"/>
                </mxCell>
                <mxCell id="72" value="5" style="rounded=1;whiteSpace=wrap;html=1;fillColor=none;strokeColor=#000000;fontColor=#000000;" vertex="1" parent="1">
                    <mxGeometry x="250" y="404" width="120" height="20" as="geometry"/>
                </mxCell>
                <mxCell id="73" value="4" style="rounded=1;whiteSpace=wrap;html=1;fillColor=none;strokeColor=#000000;fontColor=#000000;" vertex="1" parent="1">
                    <mxGeometry x="250" y="424" width="120" height="20" as="geometry"/>
                </mxCell>
                <mxCell id="74" value="3" style="rounded=1;whiteSpace=wrap;html=1;fillColor=none;strokeColor=#000000;fontColor=#000000;" vertex="1" parent="1">
                    <mxGeometry x="250" y="444" width="120" height="20" as="geometry"/>
                </mxCell>
                <mxCell id="75" value="2" style="rounded=1;whiteSpace=wrap;html=1;fillColor=none;strokeColor=#000000;fontColor=#000000;" vertex="1" parent="1">
                    <mxGeometry x="250" y="464" width="120" height="20" as="geometry"/>
                </mxCell>
                <mxCell id="76" value="1" style="rounded=1;whiteSpace=wrap;html=1;fillColor=none;strokeColor=#000000;fontColor=#000000;" vertex="1" parent="1">
                    <mxGeometry x="250" y="484" width="120" height="20" as="geometry"/>
                </mxCell>
                <mxCell id="77" value="0" style="rounded=1;whiteSpace=wrap;html=1;fillColor=none;strokeColor=#000000;fontColor=#000000;" vertex="1" parent="1">
                    <mxGeometry x="250" y="504" width="120" height="20" as="geometry"/>
                </mxCell>
                <mxCell id="78" value="FIFO" style="text;html=1;strokeColor=none;fillColor=none;align=center;verticalAlign=middle;whiteSpace=wrap;rounded=0;fontColor=#000000;fontSize=9;" vertex="1" parent="1">
                    <mxGeometry x="260" y="524" width="100" height="20" as="geometry"/>
                </mxCell>
                <mxCell id="79" value="" style="shape=flexArrow;endArrow=classic;html=1;fontSize=9;fontColor=#A6A6A6;strokeColor=#000000;" edge="1" parent="1">
                    <mxGeometry width="50" height="50" relative="1" as="geometry">
                        <mxPoint x="390" y="443.30999999999995" as="sourcePoint"/>
                        <mxPoint x="420" y="443.30999999999995" as="targetPoint"/>
                    </mxGeometry>
                </mxCell>
                <mxCell id="80" value="3（7）" style="rounded=1;whiteSpace=wrap;html=1;fillColor=none;strokeColor=#000000;fontColor=#000000;" vertex="1" parent="1">
                    <mxGeometry x="440" y="340" width="120" height="20" as="geometry"/>
                </mxCell>
                <mxCell id="81" value="2（5）" style="rounded=1;whiteSpace=wrap;html=1;fillColor=none;strokeColor=#000000;fontColor=#000000;" vertex="1" parent="1">
                    <mxGeometry x="440" y="360" width="120" height="20" as="geometry"/>
                </mxCell>
                <mxCell id="82" value="1（3）" style="rounded=1;whiteSpace=wrap;html=1;fillColor=none;strokeColor=#000000;fontColor=#000000;" vertex="1" parent="1">
                    <mxGeometry x="440" y="380" width="120" height="20" as="geometry"/>
                </mxCell>
                <mxCell id="83" value="0（1）" style="rounded=1;whiteSpace=wrap;html=1;fillColor=none;strokeColor=#000000;fontColor=#000000;" vertex="1" parent="1">
                    <mxGeometry x="440" y="400" width="120" height="20" as="geometry"/>
                </mxCell>
                <mxCell id="84" value="Odd SRAM" style="text;html=1;strokeColor=none;fillColor=none;align=center;verticalAlign=middle;whiteSpace=wrap;rounded=0;fontColor=#000000;fontSize=9;" vertex="1" parent="1">
                    <mxGeometry x="450" y="426" width="100" height="20" as="geometry"/>
                </mxCell>
                <mxCell id="85" value="3（6）" style="rounded=1;whiteSpace=wrap;html=1;fillColor=none;strokeColor=#000000;fontColor=#000000;" vertex="1" parent="1">
                    <mxGeometry x="440" y="466" width="120" height="20" as="geometry"/>
                </mxCell>
                <mxCell id="86" value="2（4）" style="rounded=1;whiteSpace=wrap;html=1;fillColor=none;strokeColor=#000000;fontColor=#000000;" vertex="1" parent="1">
                    <mxGeometry x="440" y="486" width="120" height="20" as="geometry"/>
                </mxCell>
                <mxCell id="87" value="1（2）" style="rounded=1;whiteSpace=wrap;html=1;fillColor=none;strokeColor=#000000;fontColor=#000000;" vertex="1" parent="1">
                    <mxGeometry x="440" y="506" width="120" height="20" as="geometry"/>
                </mxCell>
                <mxCell id="88" value="0（0）" style="rounded=1;whiteSpace=wrap;html=1;fillColor=none;strokeColor=#000000;fontColor=#000000;" vertex="1" parent="1">
                    <mxGeometry x="440" y="526" width="120" height="20" as="geometry"/>
                </mxCell>
                <mxCell id="89" value="Even SRAM" style="text;html=1;strokeColor=none;fillColor=none;align=center;verticalAlign=middle;whiteSpace=wrap;rounded=0;fontColor=#000000;fontSize=9;" vertex="1" parent="1">
                    <mxGeometry x="450" y="552" width="100" height="20" as="geometry"/>
                </mxCell>
                <mxCell id="90" value="" style="endArrow=classic;html=1;fontColor=#000000;strokeColor=#000000;entryX=1;entryY=0.5;entryDx=0;entryDy=0;exitX=0.947;exitY=0.993;exitDx=0;exitDy=0;exitPerimeter=0;" edge="1" parent="1">
                    <mxGeometry width="50" height="50" relative="1" as="geometry">
                        <mxPoint x="661.6999999999994" y="535.9599999999999" as="sourcePoint"/>
                        <mxPoint x="557" y="535.76" as="targetPoint"/>
                    </mxGeometry>
                </mxCell>
                <mxCell id="91" value="Read point : 0" style="text;html=1;strokeColor=none;fillColor=none;align=center;verticalAlign=middle;whiteSpace=wrap;rounded=0;fontColor=#000000;fontSize=9;" vertex="1" parent="1">
                    <mxGeometry x="567" y="516" width="100" height="20" as="geometry"/>
                </mxCell>
                <mxCell id="92" value="" style="endArrow=classic;html=1;fontColor=#000000;strokeColor=#000000;entryX=1;entryY=0.5;entryDx=0;entryDy=0;exitX=0.947;exitY=0.993;exitDx=0;exitDy=0;exitPerimeter=0;" edge="1" parent="1">
                    <mxGeometry width="50" height="50" relative="1" as="geometry">
                        <mxPoint x="661.6999999999994" y="515.6300000000002" as="sourcePoint"/>
                        <mxPoint x="557" y="515.43" as="targetPoint"/>
                    </mxGeometry>
                </mxCell>
                <mxCell id="93" value="Write point : 2" style="text;html=1;strokeColor=none;fillColor=none;align=center;verticalAlign=middle;whiteSpace=wrap;rounded=0;fontColor=#000000;fontSize=9;" vertex="1" parent="1">
                    <mxGeometry x="567" y="495.67" width="100" height="20" as="geometry"/>
                </mxCell>
            </root>
        </mxGraphModel>
    </diagram>
</mxfile>